Asai Kathalan - DVD Rip - XviD 1D MP3 - Team XDN

Format                                   : AVI
Format/Info                              : Audio Video Interleave
File size                                : 704 MiB
Duration                                 : 1h 34mn
Overall bit rate                         : 1 046 Kbps

Video
ID                                       : 0
Format                                   : MPEG-4 Visual
Format profile                           : Advanced Simple@L5
Format settings, BVOP                    : 2
Format settings, QPel                    : Yes
Format settings, GMC                     : No warppoints
Format settings, Matrix                  : Default (H.263)
Codec ID                                 : XVID
Codec ID/Hint                            : XviD
Duration                                 : 1h 34mn
Bit rate                                 : 959 Kbps
Width                                    : 608 pixels
Height                                   : 256 pixels
Display aspect ratio                     : 2.40:1
Frame rate                               : 29.970 fps
Color space                              : YUV
Chroma subsampling                       : 4:2:0
Bit depth                                : 8 bits
Scan type                                : Progressive
Compression mode                         : Lossy
Bits/(Pixel*Frame)                       : 0.206
Stream size                              : 645 MiB (92%)
Writing library                          : XviD 1.2.1 (UTC 2008-12-04)

Audio
ID                                       : 1
Format                                   : MPEG Audio
Format version                           : Version 1
Format profile                           : Layer 3
Mode                                     : Joint stereo
Mode extension                           : MS Stereo
Codec ID                                 : 55
Codec ID/Hint                            : MP3
Duration                                 : 1h 34mn
Bit rate mode                            : Constant
Bit rate                                 : 80.0 Kbps
Channel(s)                               : 2 channels
Sampling rate                            : 32.0 KHz
Compression mode                         : Lossy
Stream size                              : 53.8 MiB (8%)
 
http://savemyimage.com/images/2013/06/14/hyjtF.png 
http://savemyimage.com/images/2013/06/14/GEbmV.png 
http://savemyimage.com/images/2013/06/14/IXHwO.png 
http://savemyimage.com/images/2013/06/14/jVWZd.png 
http://savemyimage.com/images/2013/06/14/1XgO.png 
http://savemyimage.com/images/2013/06/14/S7tAh.png 
http://savemyimage.com/images/2013/06/14/r2Wlh.png
